<svg width="21" height="21" viewBox="0 0 21 21" fill="none" xmlns="http://www.w3.org/2000/svg">
<rect width="21" height="21" fill="#1E1E1E"/>
<rect width="16.3776" height="22.0687" rx="8.18879" transform="matrix(0.937429 0.348176 -0.466717 0.884407 8.29984 -2)" fill="#1E1313"/>
<path d="M7.71297 19.58C7.25964 19.58 6.81297 19.5133 6.37297 19.38C5.9463 19.2467 5.59297 19.0133 5.31297 18.68C5.01964 18.3467 4.87297 17.8733 4.87297 17.26C4.87297 16.82 4.99297 16.4533 5.23297 16.16C5.45964 15.88 5.6463 15.74 5.79297 15.74C5.81964 15.74 5.8463 15.7533 5.87297 15.78C5.75297 15.8867 5.65297 16.06 5.57297 16.3C5.5063 16.54 5.47297 16.7933 5.47297 17.06C5.47297 17.6067 5.65297 18.0933 6.01297 18.52C6.3863 18.9467 6.91964 19.16 7.61297 19.16C8.5463 19.16 9.37964 18.9267 10.113 18.46C10.8596 18.0067 11.533 17.4 12.133 16.64C12.7463 15.8933 13.3196 15.08 13.853 14.2C14.1063 13.7867 14.333 13.42 14.533 13.1C14.7463 12.7667 14.9396 12.4667 15.113 12.2C14.753 12.6 14.333 13.02 13.853 13.46C13.3863 13.9 12.8863 14.3133 12.353 14.7C11.833 15.0733 11.293 15.3733 10.733 15.6C10.1863 15.84 9.6463 15.96 9.11297 15.96C8.57964 15.96 8.11964 15.8 7.73297 15.48C7.3463 15.16 7.15297 14.6 7.15297 13.8C7.15297 13.0533 7.31964 12.3133 7.65297 11.58C7.9863 10.8333 8.4263 10.1133 8.97297 9.42C8.11964 9.31333 7.41964 9.1 6.87297 8.78C6.3263 8.46 6.05297 7.99333 6.05297 7.38C6.05297 6.95333 6.17297 6.6 6.41297 6.32C6.65297 6.02667 6.95297 5.79333 7.31297 5.62C7.6863 5.44667 8.07964 5.31333 8.49297 5.22C8.91964 5.12667 9.31297 5.06667 9.67297 5.04C10.0463 5.01333 10.3396 5 10.553 5C10.6196 5 10.773 5.00667 11.013 5.02C11.2663 5.02 11.533 5.03333 11.813 5.06C12.1063 5.07333 12.3596 5.1 12.573 5.14C12.7863 5.18 12.893 5.22667 12.893 5.28C12.893 5.33333 12.8463 5.36 12.753 5.36C12.5796 5.36 12.3863 5.35333 12.173 5.34C11.9596 5.31333 11.7463 5.3 11.533 5.3C11.373 5.3 11.213 5.3 11.053 5.3C10.893 5.3 10.7396 5.30667 10.593 5.32C10.3263 5.33333 9.99297 5.36667 9.59297 5.42C9.19297 5.46 8.79297 5.55333 8.39297 5.7C8.0063 5.83333 7.67964 6.04 7.41297 6.32C7.1463 6.58667 7.01297 6.95333 7.01297 7.42C7.01297 7.91333 7.21297 8.3 7.61297 8.58C8.0263 8.84667 8.55964 9.02 9.21297 9.1C9.83964 8.35333 10.553 7.66667 11.353 7.04C12.153 6.4 12.9663 5.84667 13.793 5.38C14.633 4.91333 15.4396 4.54667 16.213 4.28C16.9996 4.01333 17.6863 3.88 18.273 3.88C18.6596 3.88 19.0196 3.95333 19.353 4.1C19.6863 4.23333 19.853 4.52 19.853 4.96C19.853 5.48 19.6463 5.96667 19.233 6.42C18.833 6.87333 18.293 7.28667 17.613 7.66C16.933 8.03333 16.173 8.36 15.333 8.64C14.493 8.90667 13.6263 9.11333 12.733 9.26C11.8396 9.40667 10.9863 9.48 10.173 9.48H10.093C9.51964 10.2133 9.05964 10.98 8.71297 11.78C8.37964 12.5667 8.21297 13.3333 8.21297 14.08C8.21297 14.6267 8.3263 15.0067 8.55297 15.22C8.77964 15.4333 9.05964 15.54 9.39297 15.54C9.71297 15.54 10.053 15.4733 10.413 15.34C10.7863 15.2067 11.1396 15.0467 11.473 14.86C11.8063 14.66 12.0863 14.4733 12.313 14.3C12.8463 13.8867 13.3596 13.4533 13.853 13C14.3596 12.5467 14.8063 12.12 15.193 11.72C15.593 11.32 15.8996 10.9933 16.113 10.74C16.3796 10.3933 16.6196 10.08 16.833 9.8C17.0596 9.50667 17.3463 9.36 17.693 9.36C17.9196 9.36 18.033 9.46 18.033 9.66C18.033 9.82 17.9596 9.93333 17.813 10C17.4796 10.0133 17.1663 10.1267 16.873 10.34C16.593 10.54 16.3796 10.82 16.233 11.18C16.0196 11.7 15.8063 12.2333 15.593 12.78C15.3796 13.3267 15.1396 13.8733 14.873 14.42C14.433 15.34 13.8796 16.1933 13.213 16.98C12.5596 17.7667 11.7796 18.3933 10.873 18.86C9.9663 19.34 8.91297 19.58 7.71297 19.58ZM10.333 9.16C11.0663 9.14667 11.8463 9.06667 12.673 8.92C13.4996 8.76 14.3063 8.54667 15.093 8.28C15.893 8.01333 16.613 7.70667 17.253 7.36C17.9063 7 18.4263 6.61333 18.813 6.2C19.1996 5.77333 19.393 5.34 19.393 4.9C19.393 4.59333 19.273 4.39333 19.033 4.3C18.8063 4.20667 18.5596 4.16 18.293 4.16C17.7463 4.16 17.133 4.29333 16.453 4.56C15.773 4.81333 15.0663 5.16667 14.333 5.62C13.613 6.07333 12.9063 6.60667 12.213 7.22C11.5196 7.82 10.893 8.46667 10.333 9.16Z" fill="#5E8CD1"/>
</svg>
